<svg id="Laag_1" data-name="Laag 1" xmlns="http://www.w3.org/2000/svg" viewBox="0 0 50 50"><defs><style>.cls-1{fill:#6ae59b;}</style></defs><title>Naamloos-1</title><path class="cls-1" d="M1.65,15.05a3,3,0,0,1,3.29-2.14c2.37.07,4.74,0,7.11,0a2.58,2.58,0,0,1,2.83,2.77c0,1.28,0,2.57,0,4H1.65Z"/><path class="cls-1" d="M48.77,19.66H35.64c0-1.56-.1-3.08,0-4.59a2.39,2.39,0,0,1,2.46-2.12c2.68,0,5.37,0,8,0,1.34,0,2,.88,2.59,1.91Z"/><path class="cls-1" d="M13.37,46.6c0-2.68-.08-5.3,0-7.91a4.77,4.77,0,0,1,4.77-4.39c4.75,0,9.49,0,14.24,0a4.79,4.79,0,0,1,5,4.69c.11,2.51,0,5,0,7.61Z"/><path class="cls-1" d="M18.54,24.56a6.89,6.89,0,0,1,13.78,0,6.89,6.89,0,1,1-13.78,0Z"/><path class="cls-1" d="M4.54,7.52A3.75,3.75,0,0,1,8.33,3.75,3.86,3.86,0,0,1,12.1,7.58a3.78,3.78,0,0,1-3.83,3.74A3.71,3.71,0,0,1,4.54,7.52Z"/><path class="cls-1" d="M42.15,11.32a3.74,3.74,0,0,1-3.73-3.81,3.78,3.78,0,0,1,3.81-3.75A3.85,3.85,0,0,1,46,7.59,3.79,3.79,0,0,1,42.15,11.32Z"/><path class="cls-1" d="M25.73,10.2c1.92,0,3.83,0,5.75,0,1.1,0,1.78.6,1.76,1.49s-.69,1.48-1.78,1.48H19.86c-1.13,0-1.78-.55-1.81-1.45s.66-1.51,1.83-1.52C21.83,10.19,23.78,10.2,25.73,10.2Z"/><path class="cls-1" d="M9.15,21.64a6.45,6.45,0,0,1,1.28,1C12.24,25.07,14,27.53,15.78,30a1.51,1.51,0,1,1-2.4,1.82C11.57,29.34,9.75,26.87,8,24.34a2.24,2.24,0,0,1-.13-1.73C8,22.23,8.64,22,9.15,21.64Z"/><path class="cls-1" d="M40.24,22.05a1.56,1.56,0,0,1,1.56,2.39c-1,1.6-2,3.16-3,4.74-.55.85-1.07,1.71-1.64,2.54a1.54,1.54,0,0,1-2.16.57,1.49,1.49,0,0,1-.37-2.19c1.52-2.41,3-4.81,4.62-7.19A4,4,0,0,1,40.24,22.05Z"/></svg>