<svg id="Laag_1" data-name="Laag 1" xmlns="http://www.w3.org/2000/svg" viewBox="0 0 50 50"><defs><style>.cls-1{fill:#6ae59b;}</style></defs><title>Naamloos-1</title><path class="cls-1" d="M6,25.54Q6,15.75,6,6A3.44,3.44,0,0,1,7.28,3.15a3.55,3.55,0,0,1,2.36-.77H40.78a3.37,3.37,0,0,1,3.41,2.53,5.81,5.81,0,0,1,.11,1.37q0,14.87,0,29.75a2.5,2.5,0,0,0,0,.61,2.21,2.21,0,0,1-.85,2.22Q39,43.46,34.6,48.13a1.58,1.58,0,0,1-1.6.6,3.93,3.93,0,0,0-.83,0H9.84a5.27,5.27,0,0,1-1.37-.13A3.28,3.28,0,0,1,6,45.28Q6,35.41,6,25.54Zm19.15-21H9.87c-1.27,0-1.68.41-1.68,1.69q0,19.35,0,38.7c0,.15,0,.3,0,.44a1.17,1.17,0,0,0,.94,1.15,3,3,0,0,0,.71.07H31.68c.74,0,.76,0,.76-.79,0-2,0-3.91,0-5.86A3.42,3.42,0,0,1,36,36.4c1.8.07,3.61,0,5.42,0,.8,0,.81,0,.81-.8q0-14.68,0-29.36c0-1.28-.45-1.72-1.74-1.72Zm15.3,34.22-.05-.17H36.05c-1,0-1.48.42-1.49,1.4,0,1.47,0,2.94,0,4.41a2.1,2.1,0,0,0,.11.43Z"/><path class="cls-1" d="M25.07,27.23H12.63a1,1,0,0,1-1-1,1.11,1.11,0,0,1,1-1.15,3.22,3.22,0,0,1,.44,0H37.15a3.07,3.07,0,0,1,.5,0,1,1,0,0,1,.89,1.14,1,1,0,0,1-1,1c-.2,0-.4,0-.61,0Z"/><path class="cls-1" d="M13.78,14.53a3.44,3.44,0,0,1-.47-3.09A3.25,3.25,0,0,1,14.55,9.8a3.32,3.32,0,0,1,4,.17c1.33,1.08,1.51,2.48.58,4.62l.43.21A2.56,2.56,0,0,1,21,17.58a2.49,2.49,0,0,1-2.43,2c-1.45,0-2.91,0-4.36,0a2.46,2.46,0,0,1-2.51-2,2.5,2.5,0,0,1,1.8-2.91Zm2.57,1.28h-2.1a1.24,1.24,0,1,0,0,2.49q2.1,0,4.2,0a1.25,1.25,0,1,0,0-2.48Zm2.2-3.3a2,2,0,0,0-2-2,2,2,0,0,0,0,4A2,2,0,0,0,18.55,12.51Z"/><path class="cls-1" d="M21.18,31.77h8.07a2.35,2.35,0,0,1,.81.11A1,1,0,0,1,30.64,33a1.15,1.15,0,0,1-1,.91,4.12,4.12,0,0,1-.5,0h-16c-.15,0-.3,0-.44,0a1.11,1.11,0,0,1-1-1.14,1,1,0,0,1,1.08-1c2.19,0,4.38,0,6.58,0Z"/><path class="cls-1" d="M31,14.37H24.66c-1,0-1.54-.83-1.09-1.58a1.78,1.78,0,0,1,.81-.56,1.72,1.72,0,0,1,.66,0H37.51a1,1,0,0,1,1,1,1.05,1.05,0,0,1-1,1.15,4.13,4.13,0,0,1-.5,0Z"/><path class="cls-1" d="M31,18.71h6.36c.72,0,1.1.32,1.17.91a1.08,1.08,0,0,1-1,1.26H24.75c-.8,0-1.24-.39-1.25-1.08a1,1,0,0,1,1-1.09c.18,0,.37,0,.55,0h6Z"/></svg>