<svg id="Laag_1" data-name="Laag 1" xmlns="http://www.w3.org/2000/svg" viewBox="0 0 50 50"><defs><style>.cls-1{fill:#6ae59b;}</style></defs><title>Naamloos-1</title><path class="cls-1" d="M16.82,7.8c-.14-.74-.29-1.52-.44-2.3-.12-.62.22-.94.81-.74Q21.1,6.1,25,7.47c.58.2.66.64.19,1.05q-3.1,2.7-6.22,5.39c-.48.41-.9.26-1-.37-.17-.83-.33-1.67-.49-2.51a16.79,16.79,0,0,0-9,21,17,17,0,0,0,24.29,9.18l1.52,2.69c-5.65,3-11.49,3.52-17.35,1C9.17,41.58,4.8,35.55,4.51,27.11,4.2,18.06,8.7,11.74,16.82,7.8Z"/><path class="cls-1" d="M24.68,22.65c.52.23.83-.11,1.16-.45C27,21.07,28.08,20,29.2,18.84A2,2,0,1,1,32,21.64q-1.82,1.83-3.65,3.65a.61.61,0,0,0-.21.58,3.66,3.66,0,1,1-4.33-3.14A8.13,8.13,0,0,1,24.68,22.65Z"/><path class="cls-1" d="M34.44,14.5a3.38,3.38,0,0,1,.49-.89c.93-1,1.9-1.94,2.87-2.88a1.61,1.61,0,0,1,2.3,0,1.63,1.63,0,0,1,0,2.3q-1.42,1.46-2.88,2.87a1.54,1.54,0,0,1-1.82.32A1.69,1.69,0,0,1,34.44,14.5Z"/><path class="cls-1" d="M44.23,19.43a1.64,1.64,0,0,1,1.62,1.33,1.57,1.57,0,0,1-1,1.82q-2.15.64-4.33,1.15a1.59,1.59,0,0,1-1.75-1.13,1.52,1.52,0,0,1,.85-1.92c1.49-.47,3-.83,4.52-1.24Z"/><path class="cls-1" d="M40.5,29l1.55.41,2.55.68a1.63,1.63,0,1,1-.77,3.17q-2-.5-4-1.07a1.59,1.59,0,0,1-1.14-1.78A1.68,1.68,0,0,1,40.5,29Z"/><path class="cls-1" d="M28.72,12.12a1.61,1.61,0,0,1-1.6-2c.33-1.33.69-2.65,1.06-4a1.61,1.61,0,0,1,2-1.14,1.64,1.64,0,0,1,1.19,2c-.34,1.33-.7,2.65-1.07,4A1.6,1.6,0,0,1,28.72,12.12Z"/><path class="cls-1" d="M36.29,36.35a3.74,3.74,0,0,1,.94.52c1,.92,1.92,1.88,2.86,2.83A1.63,1.63,0,1,1,37.79,42c-1-.94-1.9-1.89-2.85-2.85a1.56,1.56,0,0,1-.35-1.82A1.73,1.73,0,0,1,36.29,36.35Z"/></svg>