<svg id="Laag_1" data-name="Laag 1" xmlns="http://www.w3.org/2000/svg" viewBox="0 0 50 50"><defs><style>.cls-1{fill:#6ae59b}</style></defs><title>Naamloos-1</title><path class="cls-1" d="M41.9 43.95h-.74a1.92 1.92 0 0 1-1-.46c-.5-.44-1-.87-1.49-1.34q-4.73-4.69-9.45-9.39l-.12-.14.53-.57-.42-.37c-.14-.13-.27-.26-.4-.39s-.14-.07-.23 0l-.57.37a15.39 15.39 0 0 1-18.55-1.23 15.06 15.06 0 0 1-5.15-9.75c0-.37-.08-.74-.12-1.1v-1.8c.1-.73.15-1.48.32-2.2a15.18 15.18 0 0 1 6.23-9.33 14.94 14.94 0 0 1 7-2.66c.43-.05.86-.08 1.29-.12h1.11a15.54 15.54 0 0 1 4.74.92 15.36 15.36 0 0 1 7.82 22.39c-.25.42-.53.83-.79 1.25l.87.82.15-.14.17-.16c.22-.19.23-.19.43 0 1.43 1.41 2.87 2.82 4.28 4.24 2.06 2.11 4.11 4.21 6.19 6.3a2.37 2.37 0 0 1 .6 1.13l.08.34v.7a1.25 1.25 0 0 0 0 .14 3.05 3.05 0 0 1-1.24 2 2.59 2.59 0 0 1-1.54.55zM19.56 29.49A10.65 10.65 0 1 0 8.89 18.86a10.71 10.71 0 0 0 10.67 10.63z"/><path class="cls-1" d="M19.38 11.83l.57.05a.25.25 0 0 1 .26.24c0 .27.07.54.12.82s.11.37.44.45l1.23.32a1.75 1.75 0 0 1 .37.18.33.33 0 0 1 .18.38c-.11.42-.22.84-.35 1.25-.08.24-.16.27-.41.2a8.41 8.41 0 0 0-1.17-.33 6.45 6.45 0 0 0-1.42 0 .81.81 0 0 0-.76 1.08.92.92 0 0 0 .34.44 13.4 13.4 0 0 0 1.21.65c.51.25 1 .44 1.53.72a3.07 3.07 0 0 1 1 4.52 3.16 3.16 0 0 1-1.4 1.05c-.72.29-.72.29-.73 1.07v.58c0 .2-.11.34-.31.34h-1.09a.35.35 0 0 1-.33-.34c0-.29 0-.59-.06-.88a.35.35 0 0 0-.32-.36 15.17 15.17 0 0 1-1.55-.4c-.82-.28-.8-.3-.63-1.13.07-.31.19-.62.29-.92s.15-.2.31-.14c.51.18 1 .37 1.54.51a2.77 2.77 0 0 0 1.53 0 1.67 1.67 0 0 0 .51-.26.91.91 0 0 0 0-1.48 5.87 5.87 0 0 0-1.09-.61 12.85 12.85 0 0 1-2.13-1.07A2.52 2.52 0 0 1 16 16.63a2.79 2.79 0 0 1 1.62-2.74c.25-.14.52-.25.77-.4a.32.32 0 0 0 .14-.21c0-.34.05-.69.09-1s.1-.38.43-.4h.39z"/></svg>