<svg id="Laag_1" data-name="Laag 1" xmlns="http://www.w3.org/2000/svg" viewBox="0 0 50 50"><defs><style>.cls-1{fill:#6ae59b}</style></defs><title>Naamloos-1</title><path class="cls-1" d="M1.65 15.05a3 3 0 0 1 3.29-2.14c2.37.07 4.74 0 7.11 0a2.58 2.58 0 0 1 2.83 2.77v4H1.65zm47.12 4.61H35.64c0-1.56-.1-3.08 0-4.59a2.39 2.39 0 0 1 2.46-2.12h8c1.34 0 2 .88 2.59 1.91zM13.37 46.6c0-2.68-.08-5.3 0-7.91a4.77 4.77 0 0 1 4.77-4.39h14.24a4.79 4.79 0 0 1 5 4.69c.11 2.51 0 5 0 7.61zm5.17-22.04a6.89 6.89 0 0 1 13.78 0 6.89 6.89 0 1 1-13.78 0zm-14-17.04a3.75 3.75 0 0 1 3.79-3.77 3.86 3.86 0 0 1 3.77 3.83 3.78 3.78 0 0 1-3.83 3.74 3.71 3.71 0 0 1-3.73-3.8zm37.61 3.8a3.74 3.74 0 0 1-3.73-3.81 3.78 3.78 0 0 1 3.81-3.75A3.85 3.85 0 0 1 46 7.59a3.79 3.79 0 0 1-3.85 3.73zM25.73 10.2h5.75c1.1 0 1.78.6 1.76 1.49s-.69 1.48-1.78 1.48h-11.6c-1.13 0-1.78-.55-1.81-1.45s.66-1.51 1.83-1.52c1.95-.01 3.9 0 5.85 0zM9.15 21.64a6.45 6.45 0 0 1 1.28 1c1.81 2.43 3.57 4.89 5.35 7.36a1.51 1.51 0 1 1-2.4 1.82c-1.81-2.48-3.63-4.95-5.38-7.48a2.24 2.24 0 0 1-.13-1.73c.13-.38.77-.61 1.28-.97zm31.09.41a1.56 1.56 0 0 1 1.56 2.39c-1 1.6-2 3.16-3 4.74-.55.85-1.07 1.71-1.64 2.54a1.54 1.54 0 0 1-2.16.57 1.49 1.49 0 0 1-.37-2.19c1.52-2.41 3-4.81 4.62-7.19a4 4 0 0 1 .99-.86z"/></svg>