<svg id="Laag_1" data-name="Laag 1" xmlns="http://www.w3.org/2000/svg" viewBox="0 0 50 50"><defs><style>.cls-1{fill:#6ae59b}</style></defs><title>Naamloos-1</title><path class="cls-1" d="M6 25.54V6a3.44 3.44 0 0 1 1.28-2.85 3.55 3.55 0 0 1 2.36-.77h31.14a3.37 3.37 0 0 1 3.41 2.53 5.81 5.81 0 0 1 .11 1.37v29.75a2.5 2.5 0 0 0 0 .61 2.21 2.21 0 0 1-.85 2.22q-4.45 4.6-8.85 9.27a1.58 1.58 0 0 1-1.6.6 3.93 3.93 0 0 0-.83 0H9.84a5.27 5.27 0 0 1-1.37-.13A3.28 3.28 0 0 1 6 45.28V25.54zm19.15-21H9.87c-1.27 0-1.68.41-1.68 1.69v39.14a1.17 1.17 0 0 0 .94 1.15 3 3 0 0 0 .71.07h21.84c.74 0 .76 0 .76-.79v-5.86A3.42 3.42 0 0 1 36 36.4c1.8.07 3.61 0 5.42 0 .8 0 .81 0 .81-.8V6.24c0-1.28-.45-1.72-1.74-1.72zm15.3 34.22l-.05-.17h-4.35c-1 0-1.48.42-1.49 1.4v4.41a2.1 2.1 0 0 0 .11.43z"/><path class="cls-1" d="M25.07 27.23H12.63a1 1 0 0 1-1-1 1.11 1.11 0 0 1 1-1.15 3.22 3.22 0 0 1 .44 0h24.08a3.07 3.07 0 0 1 .5 0 1 1 0 0 1 .89 1.14 1 1 0 0 1-1 1h-.61zm-11.29-12.7a3.44 3.44 0 0 1-.47-3.09 3.25 3.25 0 0 1 1.24-1.64 3.32 3.32 0 0 1 4 .17c1.33 1.08 1.51 2.48.58 4.62l.43.21A2.56 2.56 0 0 1 21 17.58a2.49 2.49 0 0 1-2.43 2h-4.36a2.46 2.46 0 0 1-2.51-2 2.5 2.5 0 0 1 1.8-2.91zm2.57 1.28h-2.1a1.24 1.24 0 1 0 0 2.49h4.2a1.25 1.25 0 1 0 0-2.48zm2.2-3.3a2 2 0 0 0-2-2 2 2 0 0 0 0 4 2 2 0 0 0 2-2zm2.63 19.26h8.07a2.35 2.35 0 0 1 .81.11 1 1 0 0 1 .58 1.12 1.15 1.15 0 0 1-1 .91 4.12 4.12 0 0 1-.5 0H12.7a1.11 1.11 0 0 1-1-1.14 1 1 0 0 1 1.08-1h6.58zM31 14.37h-6.34c-1 0-1.54-.83-1.09-1.58a1.78 1.78 0 0 1 .81-.56 1.72 1.72 0 0 1 .66 0h12.47a1 1 0 0 1 1 1 1.05 1.05 0 0 1-1 1.15 4.13 4.13 0 0 1-.5 0zm0 4.34h6.36c.72 0 1.1.32 1.17.91a1.08 1.08 0 0 1-1 1.26H24.75c-.8 0-1.24-.39-1.25-1.08a1 1 0 0 1 1-1.09h6.55z"/></svg>