<svg version="1" xmlns="http://www.w3.org/2000/svg" width="121.333" height="121.333" viewBox="0 0 91.000000 91.000000"><path d="M22.9 16.6C11.1 21.2 1.1 25.1.6 25.3c-.5.2 4.7 2.3 11.5 4.8l12.4 4.4-.2 3.5c-.1 1.9-.5 5.1-.8 7.1l-.5 3.7 7.1-2.5c9.9-3.4 18.5-3.7 28.4-.8 4.4 1.3 8.2 2.2 8.4 2 .2-.2-.1-2.9-.6-5.9-1.1-6.2-1-6.5 5-8.9l3.7-1.6.1 3.2c.5 14.1-.9 30.7-3.3 39.2-1 3.6-1.1 6.4-.3 7.3.2.2 2 .5 4 .6 5.3.2 6-1.3 4.1-8.6-2-7.6-2.6-15.8-1.3-17.6.7-.9.6-1.7-.1-2.4-.8-.8-1.2-5.1-1.2-11.9V30.3l6.7-2.5 6.7-2.4-8-3.1C70.5 17.6 49.8 9.8 46.9 9c-1.9-.6-7.4 1.2-24 7.6z"/></svg>